name D:\school\WTK\thesis\model\3dpredictsim\Results\test_WL_v2\Fal_s1_bCst_PF_linear_ls135_k_nonl_kmtp_ig23.mot
datacolumns 128
datarows 4
range 0.00000000 0.03637211
endheader
time	pelvis_tilt	pelvis_list	pelvis_rotation	pelvis_tx	pelvis_ty	pelvis_tz	hip_flexion_l	hip_adduction_l	hip_rotation_l	hip_flexion_r	hip_adduction_r	hip_rotation_r	knee_angle_l	knee_angle_r	ankle_angle_l	ankle_angle_r	subtalar_angle_l	subtalar_angle_r	tmt_angle_l	tmt_angle_r	mtp_angle_l	mtp_angle_r	lumbar_extension	lumbar_bending	lumbar_rotation	arm_flex_l	arm_add_l	arm_rot_l	arm_flex_r	arm_add_r	arm_rot_r	elbow_flex_l	elbow_flex_r	pro_sup_l	pro_sup_r	glut_med1_l/activation	glut_med2_l/activation	glut_med3_l/activation	glut_min1_l/activation	glut_min2_l/activation	glut_min3_l/activation	semimem_l/activation	semiten_l/activation	bifemlh_l/activation	bifemsh_l/activation	sar_l/activation	add_long_l/activation	add_brev_l/activation	add_mag1_l/activation	add_mag2_l/activation	add_mag3_l/activation	tfl_l/activation	pect_l/activation	grac_l/activation	glut_max1_l/activation	glut_max2_l/activation	glut_max3_l/activation	iliacus_l/activation	psoas_l/activation	quad_fem_l/activation	gem_l/activation	peri_l/activation	rect_fem_l/activation	vas_med_l/activation	vas_int_l/activation	vas_lat_l/activation	med_gas_l/activation	lat_gas_l/activation	soleus_l/activation	tib_post_l/activation	flex_dig_l/activation	flex_hal_l/activation	tib_ant_l/activation	per_brev_l/activation	per_long_l/activation	per_tert_l/activation	ext_dig_l/activation	ext_hal_l/activation	ercspn_l/activation	intobl_l/activation	extobl_l/activation	glut_med1_r/activation	glut_med2_r/activation	glut_med3_r/activation	glut_min1_r/activation	glut_min2_r/activation	glut_min3_r/activation	semimem_r/activation	semiten_r/activation	bifemlh_r/activation	bifemsh_r/activation	sar_r/activation	add_long_r/activation	add_brev_r/activation	add_mag1_r/activation	add_mag2_r/activation	add_mag3_r/activation	tfl_r/activation	pect_r/activation	grac_r/activation	glut_max1_r/activation	glut_max2_r/activation	glut_max3_r/activation	iliacus_r/activation	psoas_r/activation	quad_fem_r/activation	gem_r/activation	peri_r/activation	rect_fem_r/activation	vas_med_r/activation	vas_int_r/activation	vas_lat_r/activation	med_gas_r/activation	lat_gas_r/activation	soleus_r/activation	tib_post_r/activation	flex_dig_r/activation	flex_hal_r/activation	tib_ant_r/activation	per_brev_r/activation	per_long_r/activation	per_tert_r/activation	ext_dig_r/activation	ext_hal_r/activation	ercspn_r/activation	intobl_r/activation	extobl_r/activation	
          0.00000000	         -2.93004254	         -2.62733972	          7.39110668	          0.00000000	          0.92125366	         -0.00261484	        -15.93058174	         -2.38181288	          6.10374540	         26.99056965	          3.71002083	         -1.61490518	        -13.00523249	         -6.96396010	         -6.21003996	          8.09421054	         11.48483616	         -6.22958694	         -0.06401851	         -4.56378989	         27.34523969	         -0.08489690	         -1.21853041	          0.43695698	         -2.75464621	          4.95085263	        -13.49540545	         18.08281704	         -8.58949578	        -13.45060148	          6.75239541	         41.47496013	         16.02154852	         86.51662706	         86.51662706	          0.17168477	          0.06025833	          0.05232578	          0.17781449	          0.12367372	          0.07224987	          0.05000369	          0.05000120	          0.05000105	          0.05000055	          0.08527261	          0.08636021	          0.05000056	          0.05000231	          0.05000488	          0.05978615	          0.20421505	          0.05000135	          0.05000237	          0.05001366	          0.05001046	          0.05000798	          0.36674001	          0.54645291	          0.05000491	          0.05001472	          0.05000066	          0.29099006	          0.15770869	          0.16024119	          0.15856898	          0.18291990	          0.26064374	          0.23711939	          0.19252327	          0.14255104	          0.20193023	          0.05000003	          0.05000141	          0.16613394	          0.05000010	          0.05000007	          0.05000018	          0.05000030	          0.07224812	          0.07602659	          0.05000002	          0.05000007	          0.08284238	          0.05000008	          0.05000009	          0.05000013	          0.17001513	          0.10319498	          0.11933894	          0.07230180	          0.05008470	          0.10554102	          0.27644635	          0.27913694	          0.19927554	          0.11000062	          0.05000054	          0.07225957	          0.14815246	          0.06290682	          0.11576864	          0.13469054	          0.05000043	          0.06010175	          0.47756856	          0.18134670	          0.06772657	          0.06010338	          0.06010434	          0.06010432	          0.06010392	          0.07135744	          0.07224809	          0.06320000	          0.06010334	          0.05073869	          0.06010278	          0.48170553	          0.27831105	          0.22277272	          0.08724139	          0.45725531	          0.21292087	          0.05000000	          0.11401730	          0.09384306	
          0.01212404	         -2.92968330	         -2.68247514	          7.65850766	          0.01927650	          0.91997907	         -0.00249378	        -16.15881482	         -2.74756560	          5.85488671	         26.15383391	          3.97233090	         -1.32121346	        -14.21036830	         -7.57226853	         -6.79422001	          7.49414197	         12.34287333	         -6.53076787	         -2.21479608	         -4.68084307	         28.91333033	         -0.13838559	         -0.95456320	          0.61455371	         -2.82946813	          4.44650854	        -13.52920229	         18.30781520	         -9.71705653	        -13.45112732	          6.71970451	         42.75104394	         15.76457270	         86.51662706	         86.51662706	          0.30836673	          0.05012901	          0.05000011	          0.29186740	          0.10288440	          0.06010480	          0.05000161	          0.05000023	          0.05000017	          0.05000124	          0.07093957	          0.07458904	          0.05000466	          0.05000076	          0.05000089	          0.05000040	          0.16988673	          0.07243905	          0.05000159	          0.05000175	          0.05000096	          0.05000050	          0.30509124	          0.51888695	          0.05000017	          0.05000062	          0.05000028	          0.24207472	          0.13119848	          0.13330535	          0.13191423	          0.15217111	          0.21682961	          0.19725967	          0.16016023	          0.11858837	          0.16798592	          0.05213082	          0.13557008	          0.14900698	          0.06784722	          0.11983975	          0.07825139	          0.05748750	          0.06010323	          0.06324654	          0.24125437	          0.25217645	          0.28919774	          0.36042328	          0.24461463	          0.19220013	          0.14143596	          0.08928114	          0.10230289	          0.08519126	          0.05000389	          0.08779966	          0.22997585	          0.23221427	          0.16577797	          0.14300690	          0.05000040	          0.06011346	          0.12324904	          0.12710110	          0.14150509	          0.11808484	          0.05606879	          0.05000071	          0.39728943	          0.15086252	          0.17971878	          0.05000011	          0.05000093	          0.05000091	          0.05000059	          0.05936229	          0.06010325	          0.05257610	          0.05000008	          0.05000042	          0.05000044	          0.55937879	          0.34858197	          0.18532548	          0.39395646	          0.57668607	          0.30511665	          0.05879456	          0.12134096	          0.07806807	
          0.02424807	         -2.92684486	         -2.74377837	          7.88279343	          0.03855967	          0.91869687	         -0.00233942	        -16.27971835	         -3.10615520	          5.61224472	         25.34326315	          4.21460861	         -1.03189346	        -15.57514892	         -8.19409274	         -7.57334443	          6.85065048	         13.10852355	         -6.82636605	         -4.10863172	         -4.60637574	         29.87603171	         -0.16538012	         -0.70542973	          0.80929107	         -2.89304470	          3.91035070	        -13.56890717	         18.47348848	        -10.79270414	        -13.45526054	          6.74924174	         43.96997980	         15.50871342	         86.51662706	         86.51662706	          0.25653065	          0.05000020	          0.05000011	          0.24280484	          0.08558970	          0.05000138	          0.05000228	          0.05000045	          0.05000045	          0.05000011	          0.05901492	          0.06205240	          0.18568261	          0.05000355	          0.06913460	          0.13562339	          0.14132892	          0.06026267	          0.05000042	          0.05000341	          0.05000271	          0.05000274	          0.25380551	          0.47073492	          0.05000017	          0.05000071	          0.05000019	          0.20138202	          0.11004603	          0.11226634	          0.11862689	          0.12659119	          0.18038063	          0.16410037	          0.13323778	          0.09865393	          0.13974774	          0.09368865	          0.12549138	          0.15966029	          0.05644549	          0.16386348	          0.09937444	          0.07483516	          0.05000004	          0.05261483	          0.35672280	          0.37033174	          0.39166856	          0.29983645	          0.20349764	          0.26902069	          0.11766072	          0.08533328	          0.08510706	          0.07087074	          0.05000057	          0.07304060	          0.19131702	          0.19317942	          0.13791320	          0.16328907	          0.05000063	          0.05000894	          0.10253137	          0.24524953	          0.20406537	          0.16632781	          0.05000008	          0.05000010	          0.33050523	          0.12550269	          0.14950858	          0.05000012	          0.09450130	          0.09543580	          0.07433243	          0.05000004	          0.05000012	          0.05000001	          0.05000066	          0.05000054	          0.05000051	          0.65350217	          0.37441069	          0.20485784	          0.47644957	          0.60551449	          0.38955326	          0.07716413	          0.10094359	          0.06494485	
          0.03637211	         -2.92286996	         -2.81068692	          8.06686938	          0.05757666	          0.91754586	         -0.00215096	        -16.22683821	         -3.44420887	          5.37287061	         24.63366147	          4.48008488	         -0.74690495	        -17.19028214	         -8.93337706	         -8.54830907	          6.10279878	         13.73946208	         -7.12769575	         -5.50790231	         -4.65323194	         29.73988755	         -0.19551143	         -0.49123011	          1.02331790	         -2.94733406	          3.40008082	        -13.60439325	         18.61229493	        -11.76491273	        -13.46150464	          6.83026759	         45.06878103	         15.23198214	         86.51662706	         86.51662706	          0.21340842	          0.05000042	          0.05000019	          0.20198973	          0.07120235	          0.05000084	          0.06010316	          0.06010283	          0.06009955	          0.05883706	          0.05000212	          0.05162231	          0.20144797	          0.15280211	          0.05752647	          0.14298309	          0.11757176	          0.05013408	          0.05953088	          0.05000319	          0.05000214	          0.05000198	          0.21114090	          0.45188783	          0.05000026	          0.05000129	          0.05000076	          0.16752975	          0.09154739	          0.09339447	          0.09868580	          0.10531125	          0.15005876	          0.13651514	          0.13928678	          0.08207151	          0.11625757	          0.10147606	          0.10439677	          0.13561764	          0.10439532	          0.17409283	          0.08267057	          0.10514030	          0.05000003	          0.05000004	          0.43858961	          0.44707317	          0.45425153	          0.27789181	          0.18955593	          0.26531104	          0.09788213	          0.09620656	          0.08145851	          0.05895757	          0.05000032	          0.06076259	          0.15915687	          0.19103952	          0.23066308	          0.19486849	          0.05000032	          0.05000467	          0.08729031	          0.29403032	          0.24534757	          0.21406415	          0.05000010	          0.05000010	          0.27494743	          0.10440585	          0.15142035	          0.05000007	          0.16792248	          0.17170353	          0.13421080	          0.05000003	          0.05000007	          0.05000001	          0.05000002	          0.05000016	          0.05000014	          0.68207012	          0.31147284	          0.17042143	          0.58296001	          0.65049799	          0.43365309	          0.09074670	          0.08397502	          0.05402766	
